# Blender v2.79 (sub 0) OBJ File: ''
# www.blender.org
mtllib bigWood.mtl
o Cube.001
v -1.215550 6.170405 -0.249985
v -1.215550 -6.170405 0.249985
v -1.215550 6.170405 0.249987
v 1.215550 6.170405 -0.249985
v -1.215550 -6.170405 -0.249987
v 1.215550 6.170405 0.249987
v 1.215550 -6.170405 -0.249987
v 1.215550 -6.170405 0.249985
vt 0.642963 0.941312
vt 0.714257 0.000184
vt 0.714257 0.941312
vt 0.000184 0.941314
vt 0.285375 0.000184
vt 0.285375 0.941314
vt 0.571302 0.941312
vt 0.642595 0.000184
vt 0.642596 0.941312
vt 0.285743 0.941313
vt 0.570934 0.000184
vt 0.570934 0.941313
vt 0.714625 0.000184
vt 0.999816 0.071478
vt 0.714625 0.071478
vt 0.999816 0.143139
vt 0.714625 0.071846
vt 0.999816 0.071846
vt 0.642963 0.000184
vt 0.000184 0.000184
vt 0.571301 0.000184
vt 0.285743 0.000184
vt 0.999816 0.000184
vt 0.714625 0.143139
vn -1.0000 -0.0000 0.0000
vn 0.0000 0.0000 -1.0000
vn 1.0000 0.0000 0.0000
vn 0.0000 -0.0000 1.0000
vn 0.0000 1.0000 0.0000
vn 0.0000 -1.0000 0.0000
g Cube.001_Cube.001_None
usemtl Material
s 1
f 1/1/1 2/2/1 3/3/1
f 4/4/2 5/5/2 1/6/2
f 6/7/3 7/8/3 4/9/3
f 3/10/4 8/11/4 6/12/4
f 3/13/5 4/14/5 1/15/5
f 8/16/6 5/17/6 7/18/6
f 1/1/1 5/19/1 2/2/1
f 4/4/2 7/20/2 5/5/2
f 6/7/3 8/21/3 7/8/3
f 3/10/4 2/22/4 8/11/4
f 3/13/5 6/23/5 4/14/5
f 8/16/6 2/24/6 5/17/6
