# Blender v2.79 (sub 0) OBJ File: 'duck.blend'
# www.blender.org
mtllib duck.mtl
o Cube_Cube.001
v -0.388142 -0.577820 0.414089
v -0.525946 0.620252 0.812413
v -0.336286 -0.381922 -0.973610
v -0.374614 0.457759 -1.292138
v 0.388142 -0.577820 0.414089
v 0.525946 0.620252 0.812413
v 0.336286 -0.381922 -0.973610
v 0.374614 0.457759 -1.292138
v -0.591664 -0.656016 -0.075215
v -0.580862 0.811737 0.000000
v 0.591664 -0.656016 -0.075215
v 0.580862 0.811737 0.000000
v -0.432518 0.653569 -0.795318
v 0.519382 -0.611468 -0.616590
v -0.519382 -0.611468 -0.616590
v 0.432518 0.653569 -0.795318
v -0.261461 0.568219 -1.388832
v 0.261461 0.568219 -1.388832
v -0.383642 0.855771 -0.756654
v 0.383642 0.855771 -0.756654
v -0.162242 -0.190608 1.054313
v -0.177484 0.199160 1.205226
v 0.162242 -0.190608 1.054313
v 0.177484 0.199160 1.205226
v -0.381458 0.630610 -1.509273
v 0.381458 0.630610 -1.509273
v -0.503820 1.081571 -0.716241
v 0.503820 1.081571 -0.716241
v -0.438482 0.867887 -1.658963
v 0.438482 0.867887 -1.658963
v -0.579135 1.311470 -0.738479
v 0.579135 1.311470 -0.738479
v -0.353195 1.143790 -1.646005
v 0.353195 1.143790 -1.646005
v -0.466490 1.457530 -0.869037
v 0.466490 1.457530 -0.869037
v -0.525946 0.030073 0.812413
v -0.416992 -0.044230 -1.273533
v 0.416992 -0.044230 -1.273533
v 0.525946 0.030073 0.812413
v 0.801727 0.024773 0.000000
v -0.801727 0.024773 0.000000
v 0.644030 0.021304 -0.767842
v -0.644030 0.021304 -0.767842
v -0.162242 -0.008552 1.205226
v 0.162242 -0.008552 1.205226
v -0.265032 0.520195 -1.764536
v 0.265032 0.520195 -1.764536
v -0.304651 0.685051 -1.868538
v 0.304651 0.685051 -1.868538
v -0.402499 0.554605 -1.046314
v 0.453762 -0.565941 -0.731657
v -0.453762 -0.565941 -0.731657
v 0.402499 0.554605 -1.046314
v -0.324471 0.713054 -1.070156
v 0.324471 0.713054 -1.070156
v -0.515077 0.827054 -1.104368
v 0.515077 0.827054 -1.104368
v -0.592075 1.093697 -1.193530
v 0.592075 1.093697 -1.193530
v -0.476913 1.445383 -1.271101
v 0.476913 1.445383 -1.271101
v 0.562661 0.004706 -1.035963
v -0.562661 0.004706 -1.035963
vn -0.9114 0.1651 -0.3770
vn 0.0000 -0.0370 -0.9993
vn 0.9645 0.1547 0.2140
vn -0.6691 -0.4994 0.5504
vn 0.0000 -0.9875 0.1578
vn 0.0000 0.9733 0.2294
vn 0.0000 0.9808 -0.1951
vn 0.0000 -0.9966 -0.0820
vn 0.9359 0.2810 -0.2123
vn -0.9645 0.1547 0.2140
vn 0.9233 0.2819 -0.2609
vn 0.0000 -0.9299 -0.3679
vn 0.8334 0.4467 -0.3254
vn -0.9359 0.2810 -0.2123
vn 0.5629 -0.7960 0.2225
vn 0.0000 -0.1878 0.9822
vn -0.9010 0.3287 -0.2831
vn 0.0000 -0.6587 -0.7524
vn 0.0000 0.0000 1.0000
vn 0.0000 -0.8557 0.5175
vn 0.0000 0.6821 0.7312
vn 0.7450 -0.0142 0.6670
vn 0.0000 0.0963 0.9954
vn -0.6971 -0.6433 0.3166
vn 0.0000 -0.1762 0.9844
vn 0.0000 -0.8879 -0.4600
vn 0.8703 0.2333 -0.4337
vn -0.8949 -0.3713 -0.2476
vn 0.9347 -0.3210 -0.1527
vn -0.9522 -0.2540 0.1696
vn 0.0000 0.9995 -0.0302
vn -0.9185 0.3874 -0.0789
vn 0.0000 0.6664 0.7456
vn 0.0000 0.0469 -0.9989
vn 0.6691 -0.4994 0.5504
vn 0.0000 -0.6382 0.7699
vn -0.9516 -0.2526 -0.1751
vn 0.8804 -0.3075 -0.3609
vn -0.8677 -0.3601 0.3426
vn 0.9516 -0.2526 -0.1751
vn -0.7450 -0.0142 0.6670
vn 0.8677 -0.3601 0.3426
vn 0.0000 -0.6641 -0.7477
vn -0.6971 -0.4922 -0.5212
vn 0.0000 -0.5336 -0.8458
vn 0.0000 -0.9178 0.3970
vn 0.8949 -0.3713 -0.2476
vn 0.0000 0.7535 -0.6574
vn -0.8804 -0.3075 -0.3609
vn 0.6971 -0.4922 -0.5212
vn -0.8703 0.2333 -0.4337
vn 0.0000 0.7792 -0.6268
vn -0.9347 -0.3210 -0.1527
vn 0.9522 -0.2540 0.1696
vn 0.9185 0.3874 -0.0789
vn -0.5629 -0.7960 0.2225
vn -0.8334 0.4467 -0.3254
vn 0.6971 -0.6433 0.3166
vn 0.9010 0.3287 -0.2831
vn 0.0000 -0.7959 -0.6054
vn 0.9114 0.1651 -0.3770
vn -0.9233 0.2819 -0.2609
usemtl Material.001
s off
f 64//1 51//1 4//1 38//1
f 38//2 4//2 8//2 39//2
f 41//3 12//3 6//3 40//3
f 37//4 1//4 21//4 45//4
f 9//5 11//5 5//5 1//5
f 12//6 10//6 2//6 6//6
f 16//7 13//7 10//7 12//7
f 15//8 14//8 11//8 9//8
f 43//9 16//9 12//9 41//9
f 37//10 2//10 10//10 42//10
f 63//11 54//11 16//11 43//11
f 53//12 52//12 14//12 15//12
f 54//13 8//13 18//13 56//13
f 42//14 10//14 13//14 44//14
f 56//15 18//15 26//15 58//15
f 13//16 16//16 20//16 19//16
f 51//17 13//17 19//17 55//17
f 8//18 4//18 17//18 18//18
f 46//19 24//19 22//19 45//19
f 1//20 5//20 23//20 21//20
f 6//21 2//21 22//21 24//21
f 40//22 6//22 24//22 46//22
f 27//23 28//23 32//23 31//23
f 55//24 19//24 27//24 57//24
f 19//25 20//25 28//25 27//25
f 18//26 17//26 25//26 26//26
f 60//27 30//27 34//27 62//27
f 25//28 29//28 49//28 47//28
f 58//29 26//29 30//29 60//29
f 57//30 27//30 31//30 59//30
f 62//31 61//31 35//31 36//31
f 59//32 31//32 35//32 61//32
f 31//33 32//33 36//33 35//33
f 30//34 29//34 33//34 34//34
f 5//35 40//35 46//35 23//35
f 23//36 46//36 45//36 21//36
f 9//37 42//37 44//37 15//37
f 52//38 63//38 43//38 14//38
f 1//39 37//39 42//39 9//39
f 14//40 43//40 41//40 11//40
f 2//41 37//41 45//41 22//41
f 11//42 41//42 40//42 5//42
f 3//43 38//43 39//43 7//43
f 53//44 64//44 38//44 3//44
f 48//45 47//45 49//45 50//45
f 26//46 25//46 47//46 48//46
f 30//47 26//47 48//47 50//47
f 29//48 30//48 50//48 49//48
f 15//49 44//49 64//49 53//49
f 7//50 39//50 63//50 52//50
f 29//51 59//51 61//51 33//51
f 34//52 33//52 61//52 62//52
f 25//53 57//53 59//53 29//53
f 28//54 58//54 60//54 32//54
f 32//55 60//55 62//55 36//55
f 17//56 55//56 57//56 25//56
f 4//57 51//57 55//57 17//57
f 20//58 56//58 58//58 28//58
f 16//59 54//59 56//59 20//59
f 3//60 7//60 52//60 53//60
f 39//61 8//61 54//61 63//61
f 44//62 13//62 51//62 64//62
