# Blender v2.79 (sub 0) OBJ File: ''
# www.blender.org
mtllib wood.mtl
o Cube
v -1.286192 -3.002818 0.378007
v -1.286192 2.997182 0.378007
v -1.286192 -3.002818 -0.378007
v -1.286192 2.997182 -0.378007
v 1.286192 -3.002818 0.378007
v 1.286192 2.997182 0.378007
v 1.286192 -3.002818 -0.378007
v 1.286192 2.997182 -0.378007
vt 0.800377 0.800377
vt 0.650503 0.300796
vt 0.800377 0.300796
vt 0.000209 0.000209
vt 0.499791 0.499791
vt 0.000209 0.499791
vt 0.650084 0.800377
vt 0.500209 0.300796
vt 0.650084 0.300796
vt 0.499791 0.999791
vt 0.000209 0.500209
vt 0.499791 0.500209
vt 0.999791 0.000209
vt 0.500209 0.150084
vt 0.500209 0.000209
vt 0.500209 0.300377
vt 0.999791 0.150503
vt 0.999791 0.300377
vt 0.650503 0.800377
vt 0.499791 0.000209
vt 0.500209 0.800377
vt 0.000209 0.999791
vt 0.999791 0.150084
vt 0.500209 0.150503
vn -1.0000 0.0000 0.0000
vn 0.0000 0.0000 -1.0000
vn 1.0000 0.0000 0.0000
vn 0.0000 0.0000 1.0000
vn 0.0000 -1.0000 0.0000
vn 0.0000 1.0000 0.0000
g Cube_Cube_Material.001
usemtl Material.001
s off
f 2/1/1 3/2/1 1/3/1
f 4/4/2 7/5/2 3/6/2
f 8/7/3 5/8/3 7/9/3
f 6/10/4 1/11/4 5/12/4
f 7/13/5 1/14/5 3/15/5
f 4/16/6 6/17/6 8/18/6
f 2/1/1 4/19/1 3/2/1
f 4/4/2 8/20/2 7/5/2
f 8/7/3 6/21/3 5/8/3
f 6/10/4 2/22/4 1/11/4
f 7/13/5 5/23/5 1/14/5
f 4/16/6 2/24/6 6/17/6
o COLLISION_Cube.001
v -1.286192 -3.002818 0.378007
v -1.286192 2.997182 0.378007
v -1.286192 -3.002818 -0.378007
v -1.286192 2.997182 -0.378007
v 1.286192 -3.002818 0.378007
v 1.286192 2.997182 0.378007
v 1.286192 -3.002818 -0.378007
v 1.286192 2.997182 -0.378007
vn -1.0000 0.0000 0.0000
vn 0.0000 0.0000 -1.0000
vn 1.0000 0.0000 0.0000
vn 0.0000 0.0000 1.0000
vn 0.0000 -1.0000 0.0000
vn 0.0000 1.0000 0.0000
g COLLISION_Cube.001_None
usemtl None
s off
f 10//7 11//7 9//7
f 12//8 15//8 11//8
f 16//9 13//9 15//9
f 14//10 9//10 13//10
f 15//11 9//11 11//11
f 12//12 14//12 16//12
f 10//7 12//7 11//7
f 12//8 16//8 15//8
f 16//9 14//9 13//9
f 14//10 10//10 9//10
f 15//11 13//11 9//11
f 12//12 10//12 14//12
